{
  "accessors": [
    {
      "bufferView": 2,
      "componentType": 5126,
      "count": 20203,
      "max": [
        9.447813034057617,
        9.162423133850098,
        21.934965133666992
      ],
      "min": [
        -9.716300964355469,
        -12.770162582397461,
        -0.00061798095703125
      ],
      "type": "VEC3"
    },
    {
      "bufferView": 2,
      "byteOffset": 242436,
      "componentType": 5126,
      "count": 20203,
      "type": "VEC3"
    },
    {
      "bufferView": 1,
      "componentType": 5126,
      "count": 20203,
      "type": "VEC2"
    },
    {
      "bufferView": 0,
      "componentType": 5125,
      "count": 112242,
      "type": "SCALAR"
    },
    {
      "bufferView": 2,
      "byteOffset": 484872,
      "componentType": 5126,
      "count": 16093,
      "max": [
        9.447813034057617,
        8.991500854492188,
        21.931251525878906
      ],
      "min": [
        -12.481210708618164,
        -12.768513679504395,
        0.5272111892700195
      ],
      "type": "VEC3"
    },
    {
      "bufferView": 2,
      "byteOffset": 677988,
      "componentType": 5126,
      "count": 16093,
      "type": "VEC3"
    },
    {
      "bufferView": 1,
      "byteOffset": 161624,
      "componentType": 5126,
      "count": 16093,
      "type": "VEC2"
    },
    {
      "bufferView": 0,
      "byteOffset": 448968,
      "componentType": 5125,
      "count": 90207,
      "type": "SCALAR"
    },
    {
      "bufferView": 2,
      "byteOffset": 871104,
      "componentType": 5126,
      "count": 10542,
      "max": [
        9.425501823425293,
        8.851625442504883,
        21.921340942382813
      ],
      "min": [
        -12.473018646240234,
        -12.714746475219727,
        3.102710723876953
      ],
      "type": "VEC3"
    },
    {
      "bufferView": 2,
      "byteOffset": 997608,
      "componentType": 5126,
      "count": 10542,
      "type": "VEC3"
    },
    {
      "bufferView": 1,
      "byteOffset": 290368,
      "componentType": 5126,
      "count": 10542,
      "type": "VEC2"
    },
    {
      "bufferView": 0,
      "byteOffset": 809796,
      "componentType": 5125,
      "count": 59055,
      "type": "SCALAR"
    }
  ],
  "asset": {
    "generator": "fab-model-conversion",
    "version": "2.0"
  },
  "bufferViews": [
    {
      "buffer": 0,
      "byteLength": 1046016,
      "target": 34963
    },
    {
      "buffer": 0,
      "byteLength": 374704,
      "byteOffset": 1046016,
      "byteStride": 8,
      "target": 34962
    },
    {
      "buffer": 0,
      "byteLength": 1124112,
      "byteOffset": 1420720,
      "byteStride": 12,
      "target": 34962
    }
  ],
  "buffers": [
    {
      "byteLength": 2544832,
      "uri": "scene.bin"
    }
  ],
  "extensionsUsed": [
    "KHR_materials_unlit"
  ],
  "images": [
    {
      "uri": "textures/Material_u1_v1_baseColor.jpeg"
    },
    {
      "uri": "textures/Material_u2_v1_baseColor.jpeg"
    },
    {
      "uri": "textures/Material_u1_v2_baseColor.jpeg"
    }
  ],
  "materials": [
    {
      "doubleSided": true,
      "extensions": {
        "KHR_materials_unlit": {}
      },
      "name": "Material_u1_v1",
      "pbrMetallicRoughness": {
        "baseColorTexture": {
          "index": 0
        },
        "metallicFactor": 0.0
      }
    },
    {
      "doubleSided": true,
      "extensions": {
        "KHR_materials_unlit": {}
      },
      "name": "Material_u2_v1",
      "pbrMetallicRoughness": {
        "baseColorTexture": {
          "index": 1
        },
        "metallicFactor": 0.0
      }
    },
    {
      "doubleSided": true,
      "extensions": {
        "KHR_materials_unlit": {}
      },
      "name": "Material_u1_v2",
      "pbrMetallicRoughness": {
        "baseColorTexture": {
          "index": 2
        },
        "metallicFactor": 0.0
      }
    }
  ],
  "meshes": [
    {
      "name": "meshNode_Material_u1_v1_0",
      "primitives": [
        {
          "attributes": {
            "NORMAL": 1,
            "POSITION": 0,
            "TEXCOORD_0": 2
          },
          "indices": 3,
          "material": 0,
          "mode": 4
        }
      ]
    },
    {
      "name": "meshNode_Material_u2_v1_0",
      "primitives": [
        {
          "attributes": {
            "NORMAL": 5,
            "POSITION": 4,
            "TEXCOORD_0": 6
          },
          "indices": 7,
          "material": 1,
          "mode": 4
        }
      ]
    },
    {
      "name": "meshNode_Material_u1_v2_0",
      "primitives": [
        {
          "attributes": {
            "NORMAL": 9,
            "POSITION": 8,
            "TEXCOORD_0": 10
          },
          "indices": 11,
          "material": 2,
          "mode": 4
        }
      ]
    }
  ],
  "nodes": [
    {
      "children": [
        1
      ],
      "matrix": [
        1.0,
        0.0,
        0.0,
        0.0,
        0.0,
        2.220446049250313e-16,
        -1.0,
        0.0,
        0.0,
        1.0,
        2.220446049250313e-16,
        0.0,
        0.0,
        0.0,
        0.0,
        1.0
      ],
      "name": "Sketchfab_model"
    },
    {
      "children": [
        2
      ],
      "matrix": [
        1.0,
        0.0,
        0.0,
        0.0,
        0.0,
        -1.0,
        0.0,
        0.0,
        0.0,
        0.0,
        -1.0,
        0.0,
        0.0,
        0.0,
        0.0,
        1.0
      ],
      "name": "G-earth-screensHD.fbx"
    },
    {
      "children": [
        3
      ],
      "name": "RootNode"
    },
    {
      "children": [
        4,
        5,
        6
      ],
      "name": "meshNode"
    },
    {
      "mesh": 0,
      "name": "meshNode_Material_u1_v1_0"
    },
    {
      "mesh": 1,
      "name": "meshNode_Material_u2_v1_0"
    },
    {
      "mesh": 2,
      "name": "meshNode_Material_u1_v2_0"
    }
  ],
  "samplers": [
    {
      "magFilter": 9729,
      "minFilter": 9987,
      "wrapS": 10497,
      "wrapT": 10497
    }
  ],
  "scene": 0,
  "scenes": [
    {
      "name": "Sketchfab_Scene",
      "nodes": [
        0
      ]
    }
  ],
  "textures": [
    {
      "sampler": 0,
      "source": 0
    },
    {
      "sampler": 0,
      "source": 1
    },
    {
      "sampler": 0,
      "source": 2
    }
  ]
}
